<?xml version="1.0" standalone="no"?>
<!DOCTYPE svg PUBLIC "-//W3C//DTD SVG 20010904//EN"
 "http://www.w3.org/TR/2001/REC-SVG-20010904/DTD/svg10.dtd">
<svg version="1.0" xmlns="http://www.w3.org/2000/svg"
 width="245.000000pt" height="245.000000pt" viewBox="0 0 245.000000 245.000000"
 preserveAspectRatio="xMidYMid meet">
<metadata>
Created by potrace 1.11, written by Peter Selinger 2001-2013
</metadata>
<g transform="translate(0.000000,245.000000) scale(0.100000,-0.100000)"
fill="#000000" stroke="none">
<path d="M1040 2215 c-205 -37 -382 -130 -541 -283 -180 -172 -280 -380 -311
-638 -32 -275 71 -577 271 -795 140 -153 347 -270 556 -315 109 -23 323 -23
430 0 346 75 628 311 759 637 55 137 88 336 72 442 l-7 47 -146 0 -145 0 6
-53 c15 -121 -31 -319 -105 -443 -19 -32 -68 -93 -109 -134 -220 -223 -541
-289 -827 -171 -287 118 -463 379 -463 687 0 216 63 369 215 519 104 103 168
145 292 188 76 26 106 31 213 35 179 6 316 -31 451 -121 68 -45 170 -146 207
-204 15 -24 33 -43 40 -43 16 0 262 91 262 97 0 30 -97 164 -183 252 -154 157
-346 258 -566 296 -102 18 -270 18 -371 0z"/>
<path d="M1052 1839 c-215 -58 -391 -222 -463 -432 -23 -66 -37 -255 -25 -321
l7 -36 520 0 520 0 -6 -22 c-22 -72 -139 -187 -224 -219 -154 -57 -314 -22
-442 98 l-46 43 -117 -42 c-64 -23 -116 -47 -116 -53 0 -21 102 -145 153 -186
206 -166 529 -186 765 -47 207 121 351 406 314 618 -7 35 -13 64 -15 66 -2 2
-235 6 -518 10 -283 3 -516 8 -519 11 -11 10 65 135 105 172 86 79 210 119
328 106 76 -9 179 -61 240 -121 l47 -46 77 30 c43 16 95 35 116 42 20 6 37 17
37 25 0 21 -84 128 -136 173 -155 133 -399 186 -602 131z"/>
</g>
</svg>
